<?xml version="1.0" encoding="UTF-8" standalone="no"?>
<!DOCTYPE svg PUBLIC "-//W3C//DTD SVG 1.1//EN"
 "http://www.w3.org/Graphics/SVG/1.1/DTD/svg11.dtd">
<!-- Generated by graphviz version 2.40.1 (20161225.0304)
 -->
<!-- Title: dependencies Pages: 1 -->
<svg width="504pt" height="284pt"
 viewBox="0.00 0.00 504.00 284.00" xmlns="http://www.w3.org/2000/svg" xmlns:xlink="http://www.w3.org/1999/xlink">
<g id="graph0" class="graph" transform="scale(1 1) rotate(0) translate(4 280)">
<title>dependencies</title>
<polygon fill="#ffffff" stroke="transparent" points="-4,4 -4,-280 500,-280 500,4 -4,4"/>
<text text-anchor="start" x="227.0091" y="-42.4" font-family="sans-serif" font-weight="bold" font-size="14.00" fill="#000000">Legend</text>
<polygon fill="#ffffb3" stroke="transparent" points="14,-10 14,-30 34,-30 34,-10 14,-10"/>
<text text-anchor="start" x="37.629" y="-15.4" font-family="sans-serif" font-size="14.00" fill="#000000"> &#160;Declarations</text>
<polygon fill="#8dd3c7" stroke="transparent" points="127,-10 127,-30 147,-30 147,-10 127,-10"/>
<text text-anchor="start" x="150.7251" y="-15.4" font-family="sans-serif" font-size="14.00" fill="#000000"> &#160;Module</text>
<polygon fill="#80b1d3" stroke="transparent" points="213,-10 213,-30 233,-30 233,-10 213,-10"/>
<text text-anchor="start" x="236.7812" y="-15.4" font-family="sans-serif" font-size="14.00" fill="#000000"> &#160;Bootstrap</text>
<polygon fill="#fdb462" stroke="transparent" points="310,-10 310,-30 330,-30 330,-10 310,-10"/>
<text text-anchor="start" x="333.6732" y="-15.4" font-family="sans-serif" font-size="14.00" fill="#000000"> &#160;Providers</text>
<polygon fill="#fb8072" stroke="transparent" points="406,-10 406,-30 426,-30 426,-10 406,-10"/>
<text text-anchor="start" x="429.7258" y="-15.4" font-family="sans-serif" font-size="14.00" fill="#000000"> &#160;Exports</text>
<g id="clust1" class="cluster">
<title>cluster_AgWordCloudModule</title>
<polygon fill="none" stroke="#000000" stroke-dasharray="1,5" points="81,-70 81,-268 267,-268 267,-70 81,-70"/>
</g>
<g id="clust2" class="cluster">
<title>cluster_AgWordCloudModule_declarations</title>
<polygon fill="none" stroke="#000000" points="90,-78 90,-130 258,-130 258,-78 90,-78"/>
</g>
<g id="clust5" class="cluster">
<title>cluster_AgWordCloudModule_exports</title>
<polygon fill="none" stroke="#000000" points="89,-208 89,-260 259,-260 259,-208 89,-208"/>
</g>
<g id="clust8" class="cluster">
<title>cluster_AppModule</title>
<polygon fill="none" stroke="#000000" stroke-dasharray="1,5" points="275,-70 275,-268 415,-268 415,-70 275,-70"/>
</g>
<g id="clust9" class="cluster">
<title>cluster_AppModule_declarations</title>
<polygon fill="none" stroke="#000000" points="284,-78 284,-130 406,-130 406,-78 284,-78"/>
</g>
<g id="clust13" class="cluster">
<title>cluster_AppModule_bootstrap</title>
<polygon fill="none" stroke="#000000" points="283,-208 283,-260 407,-260 407,-208 283,-208"/>
</g>
<!-- AgWordCloudDirective -->
<g id="node1" class="node">
<title>AgWordCloudDirective</title>
<polygon fill="#ffffb3" stroke="#000000" points="249.7921,-122 98.2079,-122 98.2079,-86 249.7921,-86 249.7921,-122"/>
<text text-anchor="middle" x="174" y="-99.8" font-family="Times,serif" font-size="14.00" fill="#000000">AgWordCloudDirective</text>
</g>
<!-- AgWordCloudModule -->
<g id="node2" class="node">
<title>AgWordCloudModule</title>
<polygon fill="#8dd3c7" stroke="#000000" points="245.259,-187 242.259,-191 221.259,-191 218.259,-187 102.741,-187 102.741,-151 245.259,-151 245.259,-187"/>
<text text-anchor="middle" x="174" y="-164.8" font-family="Times,serif" font-size="14.00" fill="#000000">AgWordCloudModule</text>
</g>
<!-- AgWordCloudDirective&#45;&gt;AgWordCloudModule -->
<g id="edge1" class="edge">
<title>AgWordCloudDirective&#45;&gt;AgWordCloudModule</title>
<path fill="none" stroke="#000000" d="M174,-122.1061C174,-122.1061 174,-140.991 174,-140.991"/>
<polygon fill="#000000" stroke="#000000" points="170.5001,-140.9909 174,-150.991 177.5001,-140.991 170.5001,-140.9909"/>
</g>
<!-- AgWordCloudDirective  -->
<g id="node3" class="node">
<title>AgWordCloudDirective </title>
<polygon fill="#fb8072" stroke="#000000" points="251.2919,-252 96.7081,-252 96.7081,-216 251.2919,-216 251.2919,-252"/>
<text text-anchor="middle" x="174" y="-229.8" font-family="Times,serif" font-size="14.00" fill="#000000">AgWordCloudDirective </text>
</g>
<!-- AgWordCloudModule&#45;&gt;AgWordCloudDirective  -->
<g id="edge2" class="edge">
<title>AgWordCloudModule&#45;&gt;AgWordCloudDirective </title>
<path fill="none" stroke="#000000" stroke-dasharray="5,2" d="M174,-187.1061C174,-187.1061 174,-205.991 174,-205.991"/>
<polygon fill="#000000" stroke="#000000" points="170.5001,-205.9909 174,-215.991 177.5001,-205.991 170.5001,-205.9909"/>
</g>
<!-- AppComponent -->
<g id="node4" class="node">
<title>AppComponent</title>
<polygon fill="#ffffb3" stroke="#000000" points="397.9399,-122 292.0601,-122 292.0601,-86 397.9399,-86 397.9399,-122"/>
<text text-anchor="middle" x="345" y="-99.8" font-family="Times,serif" font-size="14.00" fill="#000000">AppComponent</text>
</g>
<!-- AppModule -->
<g id="node5" class="node">
<title>AppModule</title>
<polygon fill="#8dd3c7" stroke="#000000" points="386.6571,-187 383.6571,-191 362.6571,-191 359.6571,-187 303.3429,-187 303.3429,-151 386.6571,-151 386.6571,-187"/>
<text text-anchor="middle" x="345" y="-164.8" font-family="Times,serif" font-size="14.00" fill="#000000">AppModule</text>
</g>
<!-- AppComponent&#45;&gt;AppModule -->
<g id="edge3" class="edge">
<title>AppComponent&#45;&gt;AppModule</title>
<path fill="none" stroke="#000000" d="M345,-122.1061C345,-122.1061 345,-140.991 345,-140.991"/>
<polygon fill="#000000" stroke="#000000" points="341.5001,-140.9909 345,-150.991 348.5001,-140.991 341.5001,-140.9909"/>
</g>
<!-- AppComponent  -->
<g id="node6" class="node">
<title>AppComponent </title>
<polygon fill="#80b1d3" stroke="#000000" points="399.439,-252 290.561,-252 290.561,-216 399.439,-216 399.439,-252"/>
<text text-anchor="middle" x="345" y="-229.8" font-family="Times,serif" font-size="14.00" fill="#000000">AppComponent </text>
</g>
<!-- AppModule&#45;&gt;AppComponent  -->
<g id="edge4" class="edge">
<title>AppModule&#45;&gt;AppComponent </title>
<path fill="none" stroke="#000000" stroke-dasharray="1,5" d="M345,-187.1061C345,-187.1061 345,-205.991 345,-205.991"/>
<polygon fill="#000000" stroke="#000000" points="341.5001,-205.9909 345,-215.991 348.5001,-205.991 341.5001,-205.9909"/>
</g>
</g>
</svg>
